<svg width="140" height="78" viewBox="0 0 140 78" fill="none" xmlns="http://www.w3.org/2000/svg">
<path d="M78.8698 73.432C74.6458 74.8827 71.6591 75.8 69.9098 76.184C68.1604 76.6107 65.8351 76.824 62.9338 76.824C61.0991 76.824 59.0938 76.5893 56.9178 76.12C54.7418 75.6507 52.3311 74.9253 49.6858 73.944C47.0831 72.9627 44.9284 72.1093 43.2218 71.384C41.5151 70.6587 39.1684 69.6133 36.1818 68.248C33.1951 66.8827 31.3178 66.0293 30.5498 65.688C29.2698 65.1333 26.5391 64.408 22.3578 63.512C16.1711 62.1893 11.6058 59.3947 8.66175 55.128C5.76042 50.8613 4.30975 45.72 4.30975 39.704C4.30975 36.504 4.77908 33.4747 5.71775 30.616C6.65642 27.7147 8.02175 25.1333 9.81375 22.872C11.6058 20.568 13.9524 18.7547 16.8538 17.432C19.7551 16.0667 23.0404 15.384 26.7098 15.384C30.3791 15.384 33.6644 16.0667 36.5658 17.432C39.4671 18.7547 41.8138 20.568 43.6058 22.872C45.3978 25.1333 46.7418 27.7147 47.6378 30.616C48.5764 33.4747 49.0458 36.504 49.0458 39.704C49.0458 44.184 48.1071 48.3653 46.2298 52.248C44.3524 56.088 41.4084 59.096 37.3978 61.272L38.1658 61.656C41.6218 63.32 44.4804 64.664 46.7418 65.688C49.0031 66.712 52.0538 67.8213 55.8938 69.016C59.7338 70.2107 62.9551 70.808 65.5578 70.808C68.4591 70.808 72.4058 70.0613 77.3978 68.568L78.8698 73.432ZM39.6378 39.704C39.6378 36.5467 39.2324 33.6667 38.4218 31.064C37.6111 28.4187 36.2031 26.1787 34.1978 24.344C32.1924 22.4667 29.6964 21.528 26.7098 21.528C23.7658 21.528 21.2698 22.4667 19.2218 24.344C17.2164 26.1787 15.8084 28.4187 14.9978 31.064C14.1871 33.7093 13.7818 36.6107 13.7818 39.768C13.7818 42.8827 14.1871 45.7413 14.9978 48.344C15.8084 50.904 17.2164 53.08 19.2218 54.872C21.2698 56.664 23.7658 57.56 26.7098 57.56C31.0618 57.56 34.3044 55.832 36.4378 52.376C38.5711 48.8773 39.6378 44.6533 39.6378 39.704ZM135.65 49.24C135.65 53.7627 134.05 57.3253 130.85 59.928C127.693 62.488 123.81 63.768 119.202 63.768C113.357 63.768 108.344 62.5307 104.162 60.056L107.17 52.952C110.498 56.0667 114.232 57.624 118.37 57.624C120.546 57.624 122.402 57.0267 123.938 55.832C125.517 54.6373 126.306 52.9733 126.306 50.84C126.306 49.304 125.794 47.9387 124.77 46.744C123.746 45.5493 122.466 44.6107 120.93 43.928C119.437 43.2453 117.794 42.456 116.002 41.56C114.21 40.6213 112.546 39.6827 111.01 38.744C109.517 37.8053 108.258 36.4827 107.234 34.776C106.21 33.0267 105.698 31.0213 105.698 28.76C105.698 24.3653 107.213 21.0373 110.242 18.776C113.314 16.5147 117.389 15.384 122.466 15.384C124.386 15.384 126.605 15.768 129.122 16.536C131.64 17.304 133.56 18.2 134.882 19.224L130.466 24.728C128.077 22.5947 125.133 21.528 121.634 21.528C119.842 21.528 118.285 21.9973 116.962 22.936C115.682 23.8747 115.042 25.1973 115.042 26.904C115.042 28.3973 115.554 29.72 116.578 30.872C117.602 31.9813 118.861 32.8773 120.354 33.56C121.89 34.2427 123.554 35.0533 125.346 35.992C127.138 36.9307 128.781 37.8907 130.274 38.872C131.81 39.8107 133.09 41.176 134.114 42.968C135.138 44.76 135.65 46.8507 135.65 49.24Z" fill="#045682"/>
<path d="M100.585 62.936H91.9453V31.192C91.9453 30.5947 92.0519 29.0587 92.2653 26.584C92.1373 26.9253 91.9666 27.416 91.7533 28.056C91.5826 28.6533 91.4119 29.208 91.2413 29.72C91.0706 30.232 90.8999 30.7227 90.7293 31.192L79.2733 63H74.5373L62.7613 31.192C62.5906 30.7227 62.4199 30.232 62.2493 29.72C62.0786 29.208 61.8866 28.6533 61.6733 28.056C61.5026 27.416 61.3533 26.9253 61.2253 26.584C61.2253 26.968 61.2679 27.6933 61.3533 28.76C61.4813 29.8267 61.5453 30.6373 61.5453 31.192V62.936H54.5693V20.056C54.5693 20.0133 54.4839 19.6933 54.3133 19.096C54.1853 18.4987 54.0359 17.88 53.8653 17.24C53.7373 16.6 53.6733 16.2373 53.6733 16.152H65.9613L75.9453 43.032C76.4146 44.312 77.0333 46.8933 77.8013 50.776C77.8866 50.4773 78.0999 49.4107 78.4413 47.576C78.8253 45.6987 79.1879 44.2693 79.5293 43.288L89.3213 16.152H100.585V62.936Z" fill="#43A6DD"/>
<path d="M24.1577 27.0623C23.9907 27.089 23.8269 27.1188 23.6638 27.1517L23.6487 27.0879C23.8242 27.0543 24.0008 27.0256 24.1801 27L24.1577 27.0623V27.0623ZM23.6638 27.1517L23.6487 27.0879C21.663 27.4621 19.9738 28.3528 18.7064 29.564C18.6536 29.6118 18.6015 29.6589 18.5668 29.6998C17.5562 30.7034 17.8893 31.9658 17.6584 32.57C17.6584 32.57 18.7735 31.1001 18.9061 30.9262C19.3187 30.3871 19.1201 30.1134 18.9605 29.6966C20.1909 28.3396 21.7783 27.53 23.6638 27.1517V27.1517ZM21.4448 29.2581C21.9915 28.8295 22.9377 28.4425 23.9368 28.227L23.9194 28.1585C22.989 28.3452 22.0891 28.6885 21.2524 29.0928C20.7642 29.1254 20.2807 29.2511 19.956 29.5144C19.6171 29.7891 19.5766 30.128 19.7864 30.3258C19.9961 30.5236 20.4226 30.4831 20.7237 30.2392C21.0546 29.97 21.2813 29.6139 21.4448 29.2581ZM18.9755 31.4933C18.6235 31.9017 17.9017 32.7086 17.9017 32.7086C18.5178 32.2121 19.5042 32.6615 21.1201 30.9296C22.017 30.1193 23.0306 29.6232 24.2229 29.3596L24.2074 29.301C22.7384 29.5743 21.6441 30.2541 20.6659 30.9622C20.0382 30.9878 19.4694 30.9168 18.9755 31.4933" fill="url(#paint0_linear)"/>
<path d="M16.2113 33.7652C16.2102 35.4201 17.2628 36.3649 17.572 37.506C17.5794 37.5383 17.5874 37.5684 17.5955 37.6003L17.6114 37.6689L17.6048 37.6342C17.7949 38.3822 18.1034 39.091 18.5148 39.7454L18.5167 39.7479C17.5312 38.9905 15.3083 37.4908 16.2113 33.7652Z" fill="url(#paint1_linear)"/>
<path d="M17.9761 36.033C18.364 35.3152 18.5676 35.3312 18.7021 34.6902C19.1787 36.8877 17.9483 38.3206 18.5147 39.7455C18.1033 39.0911 17.7949 38.3822 17.6048 37.6343C17.466 36.9348 17.7116 36.5232 17.9761 36.033" fill="url(#paint2_linear)"/>
<path d="M17.5932 30.7928C17.0106 32.1072 17.4949 33.2213 17.3962 34.2315C17.3919 34.2891 17.3777 34.445 17.3777 34.7006C17.3777 35.0405 17.4077 35.3741 17.466 35.6998V35.7008C17.2689 34.7349 15.3472 33.2064 17.5932 30.7928" fill="url(#paint3_linear)"/>
<path d="M17.3962 34.2315C17.3877 34.3302 17.5269 33.7036 18.0852 33.2248C18.541 32.8326 19.0449 32.8392 19.4008 32.4681C18.9744 34.5142 17.5099 34.4664 17.466 35.6997C17.4078 35.3741 17.3777 35.0405 17.3777 34.7006C17.3777 34.4449 17.392 34.289 17.3962 34.2315" fill="url(#paint4_linear)"/>
<path d="M19.6889 41.5466L19.6522 41.5026C21.0322 43.1295 23.4579 44.3029 25.7906 44.6756C25.7906 44.6756 25.7918 44.7782 25.5211 44.7675C24.2009 44.7134 17.8959 43.584 16.2457 37.814C17.1946 39.8054 18.5476 40.4837 19.6889 41.5466Z" fill="url(#paint5_linear)"/>
<path d="M19.6569 41.531C18.3953 39.9976 19.2316 38.7757 19.3858 38.4418C19.3858 39.6412 20.3297 42.6282 25.5292 44.4283C25.7178 44.4899 25.8061 44.5991 25.7907 44.6756C23.4579 44.3029 21.0369 43.1582 19.6569 41.531" fill="url(#paint6_linear)"/>
<path d="M28.8194 27C28.9994 27.0256 29.1756 27.0543 29.3515 27.0879L29.3357 27.1517C29.1722 27.1188 29.0083 27.089 28.8421 27.0623L28.8194 27ZM34.0393 29.6966C33.8797 30.1134 33.6811 30.3871 34.0929 30.9262C34.2259 31.1001 35.3422 32.57 35.3422 32.57C35.1105 31.9658 35.444 30.7034 34.433 29.6998C34.3983 29.6589 34.3462 29.6118 34.293 29.564C33.026 28.3528 31.3372 27.4621 29.3515 27.0879L29.3357 27.1517C31.2219 27.53 32.8082 28.3396 34.0393 29.6966V29.6966ZM32.2761 30.2392C32.5776 30.4831 33.0037 30.5236 33.2134 30.3258C33.4232 30.128 33.3823 29.7891 33.0445 29.5144C32.7195 29.2511 32.2348 29.1254 31.7478 29.0928C30.91 28.6885 30.0112 28.3452 29.0804 28.1585L29.0631 28.227C30.0617 28.4425 31.0091 28.8295 31.555 29.2581C31.7193 29.6139 31.946 29.97 32.2761 30.2392V30.2392ZM32.3343 30.9622C31.3561 30.2541 30.261 29.5743 28.792 29.301L28.7762 29.3596C29.9699 29.6232 30.9828 30.1193 31.8805 30.9296C33.4964 32.6615 34.4812 32.2121 35.0977 32.7086C35.0977 32.7086 34.3752 31.9017 34.0243 31.4933C33.5307 30.9168 32.9612 30.9878 32.3343 30.9622" fill="url(#paint7_linear)"/>
<path d="M36.7885 33.7652C36.79 35.4201 35.7378 36.3649 35.4278 37.506C35.4204 37.5383 35.4123 37.5684 35.4042 37.6003L35.3877 37.6689L35.3942 37.6342C35.2045 38.3822 34.896 39.091 34.4846 39.7454L34.4831 39.7479C35.4679 38.9905 37.6923 37.4908 36.7885 33.7652Z" fill="url(#paint8_linear)"/>
<path d="M35.0236 36.033C34.6369 35.3152 34.4322 35.3312 34.2976 34.6902C33.8206 36.8877 35.0514 38.3206 34.4846 39.7455C34.896 39.0911 35.2045 38.3822 35.3942 37.6343C35.5342 36.9348 35.2878 36.5232 35.0236 36.033Z" fill="url(#paint9_linear)"/>
<path d="M35.4061 30.7928C35.9899 32.1072 35.5056 33.2213 35.6035 34.2315C35.607 34.2891 35.6221 34.445 35.6221 34.7006C35.6221 35.0405 35.592 35.3741 35.5341 35.6998V35.7008C35.7308 34.7349 37.6525 33.2064 35.4061 30.7928" fill="url(#paint10_linear)"/>
<path d="M35.6036 34.2315C35.6125 34.3302 35.4733 33.7036 34.9146 33.2248C34.4588 32.8326 33.9548 32.8392 33.5997 32.4681C34.0258 34.5142 35.4894 34.4664 35.5342 35.6997C35.592 35.3741 35.6221 35.0405 35.6221 34.7006C35.6221 34.4449 35.6071 34.289 35.6036 34.2315Z" fill="url(#paint11_linear)"/>
<path d="M33.3113 41.5466L33.348 41.5026C31.968 43.1295 29.5423 44.3029 27.2092 44.6756C27.2092 44.6756 27.2088 44.7782 27.4787 44.7675C28.7993 44.7134 35.1039 43.584 36.7542 37.814C35.8049 39.8054 34.4522 40.4837 33.3113 41.5466Z" fill="url(#paint12_linear)"/>
<path d="M33.3425 41.531C34.6053 39.9976 33.7682 38.7757 33.6132 38.4418C33.6132 39.6412 32.6693 42.6282 27.4709 44.4283C27.2816 44.4899 27.1937 44.5991 27.2091 44.6756C29.5423 44.3029 31.9637 43.1582 33.3425 41.531Z" fill="url(#paint13_linear)"/>
<path d="M22.6698 36.9178C23.2851 37.0976 25.2069 35.7136 25.2184 35.7063H25.2188C25.2188 35.7063 24.5602 33.5729 23.9449 33.3921C23.8882 33.548 23.8149 33.698 23.7343 33.8414C23.1128 33.7756 20.9277 33.9835 20.0482 34.1976C20.6516 34.8717 22.2556 36.1896 22.7931 36.4581C22.7665 36.605 22.728 36.7588 22.6698 36.9178" fill="url(#paint14_radial)"/>
<path d="M24.4538 35.4815L22.9219 35.0352L20.0447 34.1958C20.6489 34.871 22.2526 36.1879 22.7897 36.4564C22.7631 36.6036 22.7245 36.7567 22.6674 36.9168C23.2813 37.0966 25.2045 35.7129 25.2153 35.7042L24.4538 35.4815" fill="url(#paint15_linear)"/>
<path d="M25.6954 37.0706C25.6954 37.0706 23.2339 36.9733 22.8537 37.4448C23.0006 37.5404 23.1367 37.6499 23.264 37.7631C23.0014 38.2728 22.5456 40.2055 22.5013 41.0231C23.4016 40.7158 25.2917 39.7524 25.7417 39.3755C25.889 39.4441 26.0409 39.5244 26.1905 39.6232C26.5711 39.1534 25.7008 37.0841 25.6954 37.0717V37.0706Z" fill="url(#paint16_radial)"/>
<path d="M25.6927 37.0696L25.2215 37.6516L22.4978 41.0204C23.3993 40.7141 25.2882 39.7507 25.7386 39.3737C25.8863 39.4423 26.037 39.5227 26.1878 39.6211C26.5668 39.152 25.6977 37.0827 25.6927 37.0696Z" fill="url(#paint17_linear)"/>
<path d="M30.1584 37.4399C29.7786 36.9708 27.3183 37.0747 27.3036 37.0747C27.3036 37.0747 26.4403 39.1489 26.8205 39.6187C26.9681 39.5227 27.1255 39.4413 27.2843 39.3671C27.7439 39.7489 29.6487 40.7356 30.4993 41.0259C30.4526 40.1612 30.0161 38.2488 29.7574 37.7475C29.8762 37.6433 30.0073 37.539 30.1584 37.4399Z" fill="url(#paint18_radial)"/>
<path d="M28.718 38.8257L27.3002 37.0741H27.2998C27.2998 37.0741 26.4369 39.1475 26.8174 39.618C26.9647 39.522 27.1224 39.4389 27.2817 39.3658C27.7401 39.7475 29.6449 40.7335 30.4963 41.0245L28.718 38.8257" fill="url(#paint19_linear)"/>
<path d="M29.2558 33.8123C29.181 33.68 29.1116 33.5352 29.0542 33.3751C28.4407 33.5549 27.7906 35.6873 27.7864 35.7018V35.7025C27.7864 35.7025 29.7127 37.0803 30.3285 36.9005C30.2726 36.7456 30.2344 36.5856 30.2055 36.4262C30.7522 36.1518 32.3852 34.8295 32.9547 34.192C32.0258 33.9648 29.8673 33.7469 29.2558 33.8123Z" fill="url(#paint20_radial)"/>
<path d="M32.9528 34.1906L30.0748 35.0307L28.5429 35.477L27.7825 35.7008C27.7825 35.7008 29.71 37.0792 30.3262 36.8994C30.2691 36.7439 30.2306 36.5831 30.2024 36.4252C30.7488 36.1501 32.3813 34.8281 32.9528 34.1906" fill="url(#paint21_linear)"/>
<path d="M28.5575 33.0321C28.3747 33.0321 28.1935 33.0155 28.0173 32.9909C27.8947 32.4401 26.9997 30.6351 26.5012 29.9512C25.9737 30.6749 25.0757 32.4525 24.9573 32.9951C24.7923 33.0176 24.618 33.0321 24.4314 33.0321C24.4314 33.6041 26.4352 34.7945 26.4996 34.8329V34.8357L26.5027 34.8347C26.5027 34.8347 28.5575 33.6138 28.5575 33.0321" fill="url(#paint22_radial)"/>
<path d="M28.0177 32.9909C27.8947 32.4401 26.9998 30.6365 26.5016 29.9512L26.5001 32.6684V34.1151L26.4997 34.834L26.5028 34.8347C26.5028 34.8347 28.5568 33.6138 28.5568 33.0321C28.3748 33.0321 28.1943 33.0155 28.0177 32.9909Z" fill="url(#paint23_linear)"/>
<path d="M32.6265 46.5839C34.4144 46.5839 35.6471 47.2401 35.6471 48.2291C35.6471 49.3901 34.1607 49.8359 32.9084 49.8359C32.7445 49.8359 32.5837 49.8266 32.433 49.811L32.6574 49.3876C32.6975 49.3901 32.7179 49.3901 32.7507 49.3901C33.5276 49.3901 34.2348 49.027 34.2348 48.3078C34.2348 47.5248 33.474 47.1971 32.5903 47.1971C32.3929 47.1971 32.1889 47.2155 31.9838 47.2463V50.8309H30.6018C30.6018 50.8309 30.6018 50.323 30.6018 46.8302C31.2731 46.6695 31.9429 46.5839 32.6265 46.5839ZM20.4538 50.3015C21.4459 50.3015 22.1457 49.6495 22.1457 48.7374C22.1457 47.8238 21.4756 47.1701 20.4538 47.1701C19.4336 47.1701 18.7638 47.8238 18.7638 48.7374C18.7638 49.6495 19.4633 50.3015 20.4538 50.3015V50.3015ZM20.4538 46.5839C21.9576 46.5839 23.5577 47.2546 23.5577 48.7374C23.5577 50.1969 21.9915 50.904 20.4538 50.904C18.9177 50.904 17.3511 50.1969 17.3511 48.7374C17.3511 47.2546 18.9512 46.5839 20.4538 46.5839V46.5839ZM27.8966 46.5839C28.4098 46.5839 28.9377 46.605 29.4405 46.7789L29.0522 47.3239C28.7742 47.2698 28.5028 47.2463 28.2317 47.2463C26.7083 47.2463 25.8708 47.881 25.8708 48.7433C25.8708 49.6437 26.6986 50.2215 28.2344 50.2215C28.5394 50.2215 28.891 50.1844 29.196 50.1242L29.4497 50.6899C28.9681 50.8285 28.4098 50.9005 27.843 50.9005C26.1796 50.9005 24.4588 50.2634 24.4588 48.7433C24.4588 47.2186 26.2294 46.5839 27.8966 46.5839V46.5839ZM32.6265 46.4879C31.9167 46.4879 31.2404 46.5725 30.495 46.7578V50.9279H32.0913V47.3298C32.2691 47.3055 32.4364 47.2938 32.5903 47.2938C32.9527 47.2938 34.1272 47.3655 34.1272 48.3078C34.1272 48.9872 33.4374 49.2948 32.7507 49.2948C32.7206 49.2948 32.6477 49.291 32.5903 49.2882L32.2726 49.8934C32.581 49.9222 32.7445 49.9322 32.9084 49.9322C34.3246 49.9322 35.7539 49.4053 35.7539 48.2291C35.7539 47.1701 34.4715 46.4879 32.6265 46.4879V46.4879ZM20.4538 50.2056C19.5207 50.2056 18.8706 49.6007 18.8706 48.7374C18.8706 47.8584 19.5068 47.2664 20.4538 47.2664C21.402 47.2664 22.0382 47.8584 22.0382 48.7374C22.0382 49.6007 21.3854 50.2056 20.4538 50.2056ZM20.4538 46.4879C18.9076 46.4879 17.2443 47.1916 17.2443 48.7374C17.2443 50.2929 18.9076 51 20.4538 51C22.0008 51 23.6653 50.2929 23.6653 48.7374C23.6653 47.1916 22.0008 46.4879 20.4538 46.4879V46.4879ZM27.8966 46.4879C26.1326 46.4879 24.3512 47.1853 24.3512 48.7433C24.3512 49.4749 24.7399 50.0732 25.4694 50.4734C26.0852 50.8094 26.9288 50.9965 27.843 50.9965C28.426 50.9965 28.9917 50.9303 29.5943 50.7498L29.2623 50.0133C28.8706 50.0971 28.5301 50.1242 28.2344 50.1242C26.802 50.1242 25.9788 49.6222 25.9788 48.7433C25.9788 47.881 26.8421 47.3419 28.2317 47.3419C28.5062 47.3419 28.7673 47.3655 29.1023 47.4327L29.6009 46.7308C28.9948 46.508 28.4387 46.4879 27.8966 46.4879" fill="#287737"/>
<path d="M32.6265 46.5839C34.4144 46.5839 35.6471 47.24 35.6471 48.2291C35.6471 49.39 34.1607 49.8359 32.9084 49.8359C32.7445 49.8359 32.5837 49.8265 32.433 49.811L32.6574 49.3876C32.6975 49.39 32.7179 49.39 32.7507 49.39C33.5276 49.39 34.2348 49.027 34.2348 48.3078C34.2348 47.5248 33.474 47.1971 32.5903 47.1971C32.3929 47.1971 32.1889 47.2154 31.9838 47.2463V50.8309H30.6018C30.6018 50.8309 30.6018 50.323 30.6018 46.8302C31.2731 46.6694 31.9429 46.5839 32.6265 46.5839V46.5839ZM20.4538 50.3015C19.4633 50.3015 18.7638 49.6495 18.7638 48.7373C18.7638 47.8238 19.4336 47.17 20.4538 47.17C21.4756 47.17 22.1457 47.8238 22.1457 48.7373C22.1457 49.6495 21.4459 50.3015 20.4538 50.3015ZM20.4538 46.5839C18.9512 46.5839 17.3511 47.2546 17.3511 48.7373C17.3511 50.1969 18.9177 50.904 20.4538 50.904C21.9915 50.904 23.5577 50.1969 23.5577 48.7373C23.5577 47.2546 21.9576 46.5839 20.4538 46.5839ZM27.8966 46.5839C28.4098 46.5839 28.9377 46.605 29.4405 46.7789L29.0522 47.3239C28.7742 47.2698 28.5028 47.2463 28.2317 47.2463C26.7083 47.2463 25.8708 47.8809 25.8708 48.7432C25.8708 49.6436 26.6986 50.2215 28.2344 50.2215C28.5394 50.2215 28.891 50.1844 29.196 50.1241L29.4497 50.6899C28.9682 50.8284 28.4098 50.9005 27.843 50.9005C26.1797 50.9005 24.4588 50.2634 24.4588 48.7432C24.4588 47.2185 26.2294 46.5839 27.8966 46.5839" fill="url(#paint24_radial)"/>
<defs>
<linearGradient id="paint0_linear" x1="20.9404" y1="44.7848" x2="20.9404" y2="26.9095" gradientUnits="userSpaceOnUse">
<stop stop-color="#2E9D45"/>
<stop offset="1" stop-color="#7FCB28"/>
</linearGradient>
<linearGradient id="paint1_linear" x1="17.2582" y1="44.598" x2="17.2582" y2="26.9978" gradientUnits="userSpaceOnUse">
<stop stop-color="#2D9142"/>
<stop offset="1" stop-color="#99D225"/>
</linearGradient>
<linearGradient id="paint2_linear" x1="18.1893" y1="34.4796" x2="18.1893" y2="38.614" gradientUnits="userSpaceOnUse">
<stop stop-color="#2E9D45"/>
<stop offset="1" stop-color="#99D225"/>
</linearGradient>
<linearGradient id="paint3_linear" x1="17.053" y1="44.5981" x2="17.053" y2="26.9986" gradientUnits="userSpaceOnUse">
<stop stop-color="#2D9142"/>
<stop offset="1" stop-color="#99D225"/>
</linearGradient>
<linearGradient id="paint4_linear" x1="18.3894" y1="32.1896" x2="18.3894" y2="34.8622" gradientUnits="userSpaceOnUse">
<stop stop-color="#35B541"/>
<stop offset="1" stop-color="#98D225"/>
</linearGradient>
<linearGradient id="paint5_linear" x1="21.0183" y1="38.4609" x2="21.0183" y2="44.7612" gradientUnits="userSpaceOnUse">
<stop stop-color="#2EA241"/>
<stop offset="1" stop-color="#40B83D"/>
</linearGradient>
<linearGradient id="paint6_linear" x1="22.3818" y1="44.764" x2="22.3818" y2="37.6027" gradientUnits="userSpaceOnUse">
<stop stop-color="#99D225"/>
<stop offset="1" stop-color="#2D9142"/>
</linearGradient>
<linearGradient id="paint7_linear" x1="32.0594" y1="44.7848" x2="32.0594" y2="26.9095" gradientUnits="userSpaceOnUse">
<stop stop-color="#2E9D45"/>
<stop offset="1" stop-color="#7FCB28"/>
</linearGradient>
<linearGradient id="paint8_linear" x1="35.7412" y1="44.598" x2="35.7412" y2="26.9978" gradientUnits="userSpaceOnUse">
<stop stop-color="#2D9142"/>
<stop offset="1" stop-color="#99D225"/>
</linearGradient>
<linearGradient id="paint9_linear" x1="34.81" y1="34.4796" x2="34.81" y2="38.614" gradientUnits="userSpaceOnUse">
<stop stop-color="#2E9D45"/>
<stop offset="1" stop-color="#99D225"/>
</linearGradient>
<linearGradient id="paint10_linear" x1="35.9463" y1="44.5981" x2="35.9463" y2="26.9986" gradientUnits="userSpaceOnUse">
<stop stop-color="#2D9142"/>
<stop offset="1" stop-color="#99D225"/>
</linearGradient>
<linearGradient id="paint11_linear" x1="34.6111" y1="32.1896" x2="34.6111" y2="34.8622" gradientUnits="userSpaceOnUse">
<stop stop-color="#35B541"/>
<stop offset="1" stop-color="#98D225"/>
</linearGradient>
<linearGradient id="paint12_linear" x1="31.9815" y1="38.4609" x2="31.9815" y2="44.7612" gradientUnits="userSpaceOnUse">
<stop stop-color="#2EA241"/>
<stop offset="1" stop-color="#40B83D"/>
</linearGradient>
<linearGradient id="paint13_linear" x1="30.618" y1="44.764" x2="30.618" y2="37.6027" gradientUnits="userSpaceOnUse">
<stop stop-color="#99D225"/>
<stop offset="1" stop-color="#2D9142"/>
</linearGradient>
<radialGradient id="paint14_radial" cx="0" cy="0" r="1" gradientUnits="userSpaceOnUse" gradientTransform="translate(25.2184 35.7056) scale(5.3202 4.78018)">
<stop stop-color="#BFDC20"/>
<stop offset="1" stop-color="#2D9142"/>
</radialGradient>
<linearGradient id="paint15_linear" x1="24.8957" y1="36.5887" x2="19.841" y2="34.7612" gradientUnits="userSpaceOnUse">
<stop stop-color="#2D9142"/>
<stop offset="1" stop-color="#BFDC20"/>
</linearGradient>
<radialGradient id="paint16_radial" cx="0" cy="0" r="1" gradientUnits="userSpaceOnUse" gradientTransform="translate(25.6191 37.0976) scale(5.36763 4.82279)">
<stop stop-color="#BFDC20"/>
<stop offset="1" stop-color="#2D9142"/>
</radialGradient>
<linearGradient id="paint17_linear" x1="26.5294" y1="37.6155" x2="23.7671" y2="41.8491" gradientUnits="userSpaceOnUse">
<stop stop-color="#2D9142"/>
<stop offset="1" stop-color="#BFDC20"/>
</linearGradient>
<radialGradient id="paint18_radial" cx="0" cy="0" r="1" gradientUnits="userSpaceOnUse" gradientTransform="translate(27.3032 37.0754) scale(5.43588 4.8841)">
<stop stop-color="#BFDC20"/>
<stop offset="1" stop-color="#2D9142"/>
</radialGradient>
<linearGradient id="paint19_linear" x1="26.7203" y1="39.0491" x2="30.4961" y2="39.0491" gradientUnits="userSpaceOnUse">
<stop stop-color="#2D9142"/>
<stop offset="1" stop-color="#BFDC20"/>
</linearGradient>
<radialGradient id="paint20_radial" cx="0" cy="0" r="1" gradientUnits="userSpaceOnUse" gradientTransform="translate(27.7868 35.7015) scale(5.43433 4.88274)">
<stop stop-color="#BFDC20"/>
<stop offset="1" stop-color="#2D9142"/>
</radialGradient>
<linearGradient id="paint21_linear" x1="27.7825" y1="35.5532" x2="32.9524" y2="35.5532" gradientUnits="userSpaceOnUse">
<stop stop-color="#2D9142"/>
<stop offset="1" stop-color="#BFDC20"/>
</linearGradient>
<radialGradient id="paint22_radial" cx="0" cy="0" r="1" gradientUnits="userSpaceOnUse" gradientTransform="translate(26.5016 29.9512) scale(5.43627 4.88446)">
<stop stop-color="#BFDC20"/>
<stop offset="1" stop-color="#2D9142"/>
</radialGradient>
<linearGradient id="paint23_linear" x1="27.528" y1="29.9512" x2="27.528" y2="34.8284" gradientUnits="userSpaceOnUse">
<stop stop-color="#2D9142"/>
<stop offset="1" stop-color="#BFDC20"/>
</linearGradient>
<radialGradient id="paint24_radial" cx="0" cy="0" r="1" gradientUnits="userSpaceOnUse" gradientTransform="translate(27.3911 44.7037) scale(6.68862 6.00968)">
<stop stop-color="#B2DA22"/>
<stop offset="1" stop-color="#2B843D"/>
</radialGradient>
</defs>
</svg>
