<svg width="113" height="62" viewBox="0 0 113 62" fill="none" xmlns="http://www.w3.org/2000/svg">
<path d="M74.8073 58.432C70.5833 59.8827 67.5966 60.8 65.8473 61.184C64.0979 61.6107 61.7726 61.824 58.8713 61.824C57.0366 61.824 55.0313 61.5893 52.8553 61.12C50.6793 60.6507 48.2686 59.9253 45.6233 58.944C43.0206 57.9627 40.8659 57.1093 39.1593 56.384C37.4526 55.6587 35.1059 54.6133 32.1193 53.248C29.1326 51.8827 27.2553 51.0293 26.4873 50.688C25.2073 50.1333 22.4766 49.408 18.2953 48.512C12.1086 47.1893 7.54325 44.3947 4.59925 40.128C1.69792 35.8613 0.24725 30.72 0.24725 24.704C0.24725 21.504 0.716583 18.4747 1.65525 15.616C2.59392 12.7147 3.95925 10.1333 5.75125 7.872C7.54325 5.568 9.88992 3.75466 12.7913 2.432C15.6926 1.06667 18.9779 0.383999 22.6473 0.383999C26.3166 0.383999 29.6019 1.06667 32.5033 2.432C35.4046 3.75466 37.7513 5.568 39.5433 7.872C41.3353 10.1333 42.6793 12.7147 43.5753 15.616C44.5139 18.4747 44.9833 21.504 44.9833 24.704C44.9833 29.184 44.0446 33.3653 42.1673 37.248C40.2899 41.088 37.3459 44.096 33.3353 46.272L34.1033 46.656C37.5593 48.32 40.4179 49.664 42.6793 50.688C44.9406 51.712 47.9913 52.8213 51.8313 54.016C55.6713 55.2107 58.8926 55.808 61.4953 55.808C64.3966 55.808 68.3433 55.0613 73.3353 53.568L74.8073 58.432ZM35.5753 24.704C35.5753 21.5467 35.1699 18.6667 34.3593 16.064C33.5486 13.4187 32.1406 11.1787 30.1353 9.344C28.1299 7.46667 25.6339 6.528 22.6473 6.528C19.7033 6.528 17.2073 7.46667 15.1593 9.344C13.1539 11.1787 11.7459 13.4187 10.9353 16.064C10.1246 18.7093 9.71925 21.6107 9.71925 24.768C9.71925 27.8827 10.1246 30.7413 10.9353 33.344C11.7459 35.904 13.1539 38.08 15.1593 39.872C17.2073 41.664 19.7033 42.56 22.6473 42.56C26.9993 42.56 30.2419 40.832 32.3753 37.376C34.5086 33.8773 35.5753 29.6533 35.5753 24.704Z" fill="#045682"/>
<path d="M96.5228 47.936H87.8828V16.192C87.8828 15.5947 87.9894 14.0587 88.2028 11.584C88.0748 11.9253 87.9041 12.416 87.6908 13.056C87.5201 13.6533 87.3494 14.208 87.1788 14.72C87.0081 15.232 86.8374 15.7227 86.6668 16.192L75.2108 48H70.4748L58.6988 16.192C58.5281 15.7227 58.3574 15.232 58.1868 14.72C58.0161 14.208 57.8241 13.6533 57.6108 13.056C57.4401 12.416 57.2908 11.9253 57.1628 11.584C57.1628 11.968 57.2054 12.6933 57.2908 13.76C57.4188 14.8267 57.4828 15.6373 57.4828 16.192V47.936H50.5068V5.056C50.5068 5.01333 50.4214 4.69333 50.2508 4.096C50.1228 3.49866 49.9734 2.88 49.8028 2.24C49.6748 1.6 49.6108 1.23733 49.6108 1.152H61.8988L71.8828 28.032C72.3521 29.312 72.9708 31.8933 73.7388 35.776C73.8241 35.4773 74.0374 34.4107 74.3788 32.576C74.7628 30.6987 75.1254 29.2693 75.4668 28.288L85.2588 1.152H96.5228V47.936Z" fill="#43A6DD"/>
<path d="M112.9 48H104.068V5.056C104.068 5.01333 103.982 4.69333 103.812 4.096C103.684 3.49866 103.534 2.88 103.364 2.24C103.236 1.6 103.172 1.23733 103.172 1.152H112.9V48Z" fill="#236B92"/>
</svg>
